<?xml version="1.0" encoding="utf-8"?>
<!DOCTYPE svg
  PUBLIC '-//W3C//DTD SVG 1.0//EN'
  'http://www.w3.org/TR/2001/REC-SVG-20010904/DTD/svg10.dtd'>
<svg width="640" height="260" preserveAspectRatio="xMinYMin meet" viewBox="0 0 640 260" xmlns="http://www.w3.org/2000/svg" version="1.0" fill-rule="evenodd" xmlns:xlink="http://www.w3.org/1999/xlink">
	<title>...</title>
	<desc>...</desc>
	<clipPath id="clip">
		<rect x="0" y="0" width="640" height="260"/>
	</clipPath>
	<g id="group" transform="scale(1,-1) translate(0,-260)" style="clip-path: url(#clip)">
		<g transform="">
			<text x="20" y="237" style="font-family: Helvetica-Bold; font-size: 14px;fill: rgb(0%,0%,0%); stroke:none;" transform="translate(0,474) scale(1,-1)">Documentos por función</text>
			<g transform="">
				<g transform="">
					<rect x="200.0" y="45.666666666666664" width="11.419753086419746" height="22.666666666666664" style="stroke: rgb(0%,0%,0%); stroke-linecap: butt; stroke-width: 1; fill: rgb(14%,37%,43%); fill-rule: evenodd;"/>
					<rect x="200.0" y="79.66666666666667" width="11.419753086419746" height="22.66666666666667" style="stroke: rgb(0%,0%,0%); stroke-linecap: butt; stroke-width: 1; fill: rgb(14%,37%,43%); fill-rule: evenodd;"/>
					<rect x="200.0" y="113.66666666666667" width="11.419753086419746" height="22.66666666666667" style="stroke: rgb(0%,0%,0%); stroke-linecap: butt; stroke-width: 1; fill: rgb(14%,37%,43%); fill-rule: evenodd;"/>
					<rect x="200.0" y="147.66666666666666" width="296.91358024691357" height="22.666666666666657" style="stroke: rgb(0%,0%,0%); stroke-linecap: butt; stroke-width: 1; fill: rgb(14%,37%,43%); fill-rule: evenodd;"/>
					<rect x="200.0" y="181.66666666666666" width="308.3333333333333" height="22.666666666666657" style="stroke: rgb(0%,0%,0%); stroke-linecap: butt; stroke-width: 1; fill: rgb(14%,37%,43%); fill-rule: evenodd;"/>
					<g transform="">
						<g transform=" matrix(1,0,0,1,215.419753,57)">
							<text x="0.0" y="-4.0" style="font-family: Times-Roman; font-size: 10px;fill: rgb(0%,0%,0%); stroke:none;" transform="translate(0,-8) scale(1,-1)">1</text>
						</g>
						<g transform=" matrix(1,0,0,1,215.419753,91)">
							<text x="0.0" y="-4.0" style="font-family: Times-Roman; font-size: 10px;fill: rgb(0%,0%,0%); stroke:none;" transform="translate(0,-8) scale(1,-1)">1</text>
						</g>
						<g transform=" matrix(1,0,0,1,215.419753,125)">
							<text x="0.0" y="-4.0" style="font-family: Times-Roman; font-size: 10px;fill: rgb(0%,0%,0%); stroke:none;" transform="translate(0,-8) scale(1,-1)">1</text>
						</g>
						<g transform=" matrix(1,0,0,1,500.91358,159)">
							<text x="0.0" y="-4.0" style="font-family: Times-Roman; font-size: 10px;fill: rgb(0%,0%,0%); stroke:none;" transform="translate(0,-8) scale(1,-1)">26</text>
						</g>
						<g transform=" matrix(1,0,0,1,512.333333,193)">
							<text x="0.0" y="-4.0" style="font-family: Times-Roman; font-size: 10px;fill: rgb(0%,0%,0%); stroke:none;" transform="translate(0,-8) scale(1,-1)">27</text>
						</g>
					</g>
				</g>
				<g transform="">
					<g transform="">
						<path d="M 200,40 L 200,210 Z" style="stroke: rgb(0%,0%,0%); stroke-linecap: butt; stroke-width: 1;"/>
					</g>
					<g transform="">
						<path d="M 200,40 L 195,40 Z" style="stroke: rgb(0%,0%,0%); stroke-linecap: butt; stroke-width: 1;"/>
						<path d="M 200,74 L 195,74 Z" style="stroke: rgb(0%,0%,0%); stroke-linecap: butt; stroke-width: 1;"/>
						<path d="M 200,108 L 195,108 Z" style="stroke: rgb(0%,0%,0%); stroke-linecap: butt; stroke-width: 1;"/>
						<path d="M 200,142 L 195,142 Z" style="stroke: rgb(0%,0%,0%); stroke-linecap: butt; stroke-width: 1;"/>
						<path d="M 200,176 L 195,176 Z" style="stroke: rgb(0%,0%,0%); stroke-linecap: butt; stroke-width: 1;"/>
						<path d="M 200,210 L 195,210 Z" style="stroke: rgb(0%,0%,0%); stroke-linecap: butt; stroke-width: 1;"/>
					</g>
					<g transform="">
						<g transform=" matrix(1,0,0,1,195,57)">
							<text x="-105.54" y="-4.0" style="font-family: Times-Roman; font-size: 10px;fill: rgb(0%,0%,0%); stroke:none;" transform="translate(0,-8) scale(1,-1)">evaluacion_administrativa</text>
						</g>
						<g transform=" matrix(1,0,0,1,195,91)">
							<text x="-56.660000000000004" y="-4.0" style="font-family: Times-Roman; font-size: 10px;fill: rgb(0%,0%,0%); stroke:none;" transform="translate(0,-8) scale(1,-1)">nota_contexto</text>
						</g>
						<g transform=" matrix(1,0,0,1,195,125)">
							<text x="-44.44" y="-4.0" style="font-family: Times-Roman; font-size: 10px;fill: rgb(0%,0%,0%); stroke:none;" transform="translate(0,-8) scale(1,-1)">pgas_esmp</text>
						</g>
						<g transform=" matrix(1,0,0,1,195,159)">
							<text x="-38.879999999999995" y="-4.0" style="font-family: Times-Roman; font-size: 10px;fill: rgb(0%,0%,0%); stroke:none;" transform="translate(0,-8) scale(1,-1)">propuesta</text>
						</g>
						<g transform=" matrix(1,0,0,1,195,193)">
							<text x="-38.32" y="-4.0" style="font-family: Times-Roman; font-size: 10px;fill: rgb(0%,0%,0%); stroke:none;" transform="translate(0,-8) scale(1,-1)">screening</text>
						</g>
					</g>
				</g>
				<g transform="">
					<g transform="">
						<path d="M 200,40 L 570,40 Z" style="stroke: rgb(0%,0%,0%); stroke-linecap: butt; stroke-width: 1;"/>
					</g>
					<g transform="">
						<path d="M 200,40 L 200,35 Z" style="stroke: rgb(0%,0%,0%); stroke-linecap: butt; stroke-width: 1;"/>
						<path d="M 314.197531,40 L 314.197531,35 Z" style="stroke: rgb(0%,0%,0%); stroke-linecap: butt; stroke-width: 1;"/>
						<path d="M 428.395062,40 L 428.395062,35 Z" style="stroke: rgb(0%,0%,0%); stroke-linecap: butt; stroke-width: 1;"/>
						<path d="M 542.592593,40 L 542.592593,35 Z" style="stroke: rgb(0%,0%,0%); stroke-linecap: butt; stroke-width: 1;"/>
					</g>
					<g transform="">
						<g transform=" matrix(1,0,0,1,200,35)">
							<text x="-2.5" y="-10.0" style="font-family: Times-Roman; font-size: 10px;fill: rgb(0%,0%,0%); stroke:none;" transform="translate(0,-20) scale(1,-1)">0</text>
						</g>
						<g transform=" matrix(1,0,0,1,314.197531,35)">
							<text x="-5.0" y="-10.0" style="font-family: Times-Roman; font-size: 10px;fill: rgb(0%,0%,0%); stroke:none;" transform="translate(0,-20) scale(1,-1)">10</text>
						</g>
						<g transform=" matrix(1,0,0,1,428.395062,35)">
							<text x="-5.0" y="-10.0" style="font-family: Times-Roman; font-size: 10px;fill: rgb(0%,0%,0%); stroke:none;" transform="translate(0,-20) scale(1,-1)">20</text>
						</g>
						<g transform=" matrix(1,0,0,1,542.592593,35)">
							<text x="-5.0" y="-10.0" style="font-family: Times-Roman; font-size: 10px;fill: rgb(0%,0%,0%); stroke:none;" transform="translate(0,-20) scale(1,-1)">30</text>
						</g>
					</g>
				</g>
			</g>
			<text x="200" y="13" style="font-family: Times-Roman; font-size: 8px;fill: rgb(0%,0%,0%); stroke:none;" transform="translate(0,26) scale(1,-1)">Fuente: dataset GLF. Recuentos calculados; no son resultados del RAG.</text>
		</g>
	</g>
</svg>
