<svg xmlns="http://www.w3.org/2000/svg" width="760" height="500"><rect width="100%" height="100%" fill="white"/><text x="380" y="30" text-anchor="middle" font-size="20" font-weight="bold">Interacción k1 × peso de encabezados</text><text x="380" y="53" text-anchor="middle" font-size="13">Valores: Recall@5 desarrollo (%)</text><rect x="110" y="80" width="151.25" height="87.5" fill="rgb(231,231,231)" stroke="white"/><text x="185.625" y="128.75" text-anchor="middle" font-size="13">73.5</text><rect x="261.25" y="80" width="151.25" height="87.5" fill="rgb(176,176,176)" stroke="white"/><text x="336.875" y="128.75" text-anchor="middle" font-size="13">78.7</text><rect x="412.5" y="80" width="151.25" height="87.5" fill="rgb(162,162,162)" stroke="white"/><text x="488.125" y="128.75" text-anchor="middle" font-size="13">80.0</text><rect x="563.75" y="80" width="151.25" height="87.5" fill="rgb(132,132,132)" stroke="white"/><text x="639.375" y="128.75" text-anchor="middle" font-size="13">82.9</text><rect x="110" y="167.5" width="151.25" height="87.5" fill="rgb(245,245,245)" stroke="white"/><text x="185.625" y="216.25" text-anchor="middle" font-size="13">72.1</text><rect x="261.25" y="167.5" width="151.25" height="87.5" fill="rgb(153,153,153)" stroke="white"/><text x="336.875" y="216.25" text-anchor="middle" font-size="13">80.9</text><rect x="412.5" y="167.5" width="151.25" height="87.5" fill="rgb(125,125,125)" stroke="white"/><text x="488.125" y="216.25" text-anchor="middle" font-size="13">83.6</text><rect x="563.75" y="167.5" width="151.25" height="87.5" fill="rgb(132,132,132)" stroke="white"/><text x="639.375" y="216.25" text-anchor="middle" font-size="13">82.9</text><rect x="110" y="255" width="151.25" height="87.5" fill="rgb(245,245,245)" stroke="white"/><text x="185.625" y="303.75" text-anchor="middle" font-size="13">72.1</text><rect x="261.25" y="255" width="151.25" height="87.5" fill="rgb(153,153,153)" stroke="white"/><text x="336.875" y="303.75" text-anchor="middle" font-size="13">80.9</text><rect x="412.5" y="255" width="151.25" height="87.5" fill="rgb(132,132,132)" stroke="white"/><text x="488.125" y="303.75" text-anchor="middle" font-size="13">82.9</text><rect x="563.75" y="255" width="151.25" height="87.5" fill="rgb(132,132,132)" stroke="white"/><text x="639.375" y="303.75" text-anchor="middle" font-size="13">82.9</text><rect x="110" y="342.5" width="151.25" height="87.5" fill="rgb(245,245,245)" stroke="white"/><text x="185.625" y="391.25" text-anchor="middle" font-size="13">72.1</text><rect x="261.25" y="342.5" width="151.25" height="87.5" fill="rgb(167,167,167)" stroke="white"/><text x="336.875" y="391.25" text-anchor="middle" font-size="13">79.6</text><rect x="412.5" y="342.5" width="151.25" height="87.5" fill="rgb(146,146,146)" stroke="white"/><text x="488.125" y="391.25" text-anchor="middle" font-size="13">81.6</text><rect x="563.75" y="342.5" width="151.25" height="87.5" fill="rgb(146,146,146)" stroke="white"/><text x="639.375" y="391.25" text-anchor="middle" font-size="13">81.6</text><text x="185.625" y="455" text-anchor="middle" font-size="13">0.00</text><text x="336.875" y="455" text-anchor="middle" font-size="13">0.15</text><text x="488.125" y="455" text-anchor="middle" font-size="13">0.30</text><text x="639.375" y="455" text-anchor="middle" font-size="13">0.45</text><text x="98" y="128.75" text-anchor="end" font-size="13">0.6</text><text x="98" y="216.25" text-anchor="end" font-size="13">0.8</text><text x="98" y="303.75" text-anchor="end" font-size="13">1.0</text><text x="98" y="391.25" text-anchor="end" font-size="13">1.2</text></svg>